<svg xmlns="http://www.w3.org/2000/svg" xmlns:xlink="http://www.w3.org/1999/xlink" preserveAspectRatio="xMidYMid" width="16" height="16" viewBox="0 0 16 16">
  <defs>
    <style>
      .cls-1 {
        fill: #3096ef;
      }

      .cls-2 {
        fill: #fff;
        fill-rule: evenodd;
      }
    </style>
  </defs>
  <g>
    <circle cx="8" cy="8" r="8" class="cls-1"/>
    <path d="M6.733,6.642 C6.737,6.248 6.853,5.928 7.079,5.680 C7.306,5.433 7.628,5.309 8.047,5.309 C8.407,5.309 8.708,5.403 8.952,5.591 C9.195,5.780 9.317,6.062 9.317,6.439 C9.317,6.591 9.297,6.726 9.256,6.842 C9.216,6.958 9.144,7.074 9.041,7.188 C8.937,7.302 8.842,7.395 8.755,7.467 C8.668,7.539 8.532,7.645 8.346,7.785 C7.960,8.060 7.666,8.355 7.463,8.670 C7.260,8.985 7.169,9.359 7.190,9.790 L7.000,10.000 L9.000,10.000 L8.580,9.879 C8.580,9.702 8.595,9.553 8.625,9.435 C8.654,9.316 8.719,9.197 8.818,9.076 C8.918,8.956 9.015,8.856 9.110,8.778 C9.206,8.700 9.365,8.576 9.590,8.407 C9.742,8.292 9.865,8.197 9.958,8.121 C10.051,8.045 10.160,7.940 10.285,7.807 C10.410,7.673 10.508,7.543 10.580,7.416 C10.652,7.289 10.713,7.134 10.764,6.950 C10.815,6.766 10.840,6.570 10.840,6.363 C10.840,5.872 10.711,5.452 10.453,5.103 C10.195,4.754 9.865,4.499 9.463,4.338 C9.061,4.177 8.614,4.097 8.123,4.097 C7.840,4.097 7.568,4.124 7.308,4.179 C7.048,4.234 6.794,4.325 6.546,4.452 C6.298,4.579 6.086,4.738 5.908,4.928 C5.730,5.119 5.588,5.361 5.483,5.655 C5.377,5.949 5.328,6.278 5.337,6.642 L6.733,6.642 ZM7.991,13.011 C8.267,13.011 8.502,12.916 8.697,12.726 C8.891,12.535 8.989,12.297 8.989,12.011 C8.989,11.725 8.891,11.487 8.697,11.296 C8.502,11.106 8.267,11.010 7.991,11.010 C7.711,11.010 7.473,11.106 7.278,11.296 C7.083,11.487 6.986,11.725 6.986,12.011 C6.986,12.297 7.083,12.535 7.278,12.726 C7.473,12.916 7.711,13.011 7.991,13.011 L7.991,13.011 Z" class="cls-2"/>
  </g>
</svg>
