<svg xmlns="http://www.w3.org/2000/svg" xmlns:xlink="http://www.w3.org/1999/xlink" preserveAspectRatio="xMidYMid" width="14" height="14.031" viewBox="0 0 14 14.031">
  <defs>
    <style>
      .cls-1 {
        fill: #868686;
        fill-rule: evenodd;
      }
    </style>
  </defs>
  <path d="M0.143,13.175 L8.272,5.016 L4.446,5.039 C4.185,5.040 3.972,4.817 3.971,4.540 C3.970,4.264 4.181,4.040 4.442,4.038 L9.465,4.007 C9.466,4.007 9.466,4.006 9.468,4.006 C9.469,4.006 9.470,4.007 9.471,4.007 L9.499,4.007 C9.610,4.006 9.708,4.053 9.789,4.121 C9.802,4.131 9.816,4.137 9.828,4.149 C9.838,4.159 9.843,4.171 9.852,4.182 C9.923,4.262 9.972,4.362 9.972,4.474 L9.973,4.502 C9.973,4.504 9.973,4.504 9.973,4.506 C9.973,4.507 9.973,4.508 9.973,4.509 L10.004,9.496 C10.005,9.756 9.781,9.967 9.503,9.969 C9.225,9.970 8.999,9.760 8.998,9.501 L8.974,5.699 L0.840,13.862 C0.649,14.054 0.339,14.056 0.146,13.865 C-0.046,13.676 -0.048,13.366 0.143,13.175 ZM13.000,12.502 L13.000,1.501 C13.000,1.225 12.776,1.001 12.500,1.001 L1.500,1.001 C1.224,1.001 1.000,1.225 1.000,1.501 L1.000,8.002 L0.000,8.002 L0.000,1.001 C0.000,0.449 0.448,0.001 1.000,0.001 L13.000,0.001 C13.552,0.001 14.000,0.449 14.000,1.001 L14.000,13.001 C14.000,13.554 13.552,14.001 13.000,14.001 L6.000,14.001 L6.000,13.001 L12.500,13.001 C12.776,13.001 13.000,12.778 13.000,12.502 Z" class="cls-1"/>
</svg>
