<svg xmlns="http://www.w3.org/2000/svg" xmlns:xlink="http://www.w3.org/1999/xlink" preserveAspectRatio="xMidYMid" width="13" height="16" viewBox="0 0 13 16">
  <defs>
    <style>
      .cls-1 {
        fill: #3096ef;
        fill-rule: evenodd;
      }
    </style>
  </defs>
  <path d="M13.000,4.000 L13.000,15.498 C13.000,15.775 12.776,15.998 12.500,15.998 L0.500,15.998 C0.224,15.998 -0.000,15.775 -0.000,15.498 L-0.000,0.499 C-0.000,0.222 0.224,-0.002 0.500,-0.002 L9.000,-0.002 L9.000,-0.000 L9.000,-0.000 L12.998,3.998 L13.000,3.998 L13.000,4.000 L13.000,4.000 L13.000,4.000 ZM9.000,1.230 L9.000,3.998 L11.768,3.998 L9.000,1.230 ZM9.500,11.998 L3.500,11.998 C3.224,11.998 3.000,11.774 3.000,11.498 C3.000,11.222 3.224,10.998 3.500,10.998 L9.500,10.998 C9.776,10.998 10.000,11.222 10.000,11.498 C10.000,11.774 9.776,11.998 9.500,11.998 ZM9.500,8.998 L3.500,8.998 C3.224,8.998 3.000,8.774 3.000,8.499 C3.000,8.222 3.224,7.998 3.500,7.998 L9.500,7.998 C9.776,7.998 10.000,8.222 10.000,8.499 C10.000,8.774 9.776,8.998 9.500,8.998 Z" class="cls-1"/>
</svg>
