<svg xmlns="http://www.w3.org/2000/svg" xmlns:xlink="http://www.w3.org/1999/xlink" preserveAspectRatio="xMidYMid" width="12.969" height="16" viewBox="0 0 12.969 16">
  <defs>
    <style>
      .cls-1 {
        fill: #868686;
        fill-rule: evenodd;
      }
    </style>
  </defs>
  <path d="M12.812,13.173 L12.761,12.999 C12.617,12.431 9.747,11.135 9.500,11.081 L9.295,11.063 C8.866,11.073 8.344,11.357 7.239,11.972 C6.251,11.347 5.013,9.903 4.457,9.079 C3.855,8.188 3.170,6.741 3.020,5.718 C4.279,5.015 4.807,4.707 4.918,4.287 C4.978,4.062 5.007,1.148 4.516,0.773 L4.370,0.653 C4.062,0.392 3.596,-0.001 2.990,0.013 C2.842,0.018 2.695,0.046 2.552,0.098 C2.116,0.260 1.037,0.712 0.446,1.435 C0.079,1.886 -0.918,6.373 2.054,10.778 C4.991,15.135 9.483,16.026 10.187,16.008 L10.206,16.008 L10.269,16.002 C11.244,15.850 12.176,15.179 12.533,14.897 C13.189,14.377 12.944,13.594 12.812,13.173 Z" class="cls-1"/>
</svg>
