<svg xmlns="http://www.w3.org/2000/svg" xmlns:xlink="http://www.w3.org/1999/xlink" preserveAspectRatio="xMidYMid" width="15" height="3" viewBox="0 0 15 3">
  <defs>
    <style>
      .cls-1 {
        fill: #fff;
        fill-rule: evenodd;
      }
    </style>
  </defs>
  <path d="M13.500,3.000 C12.672,3.000 12.000,2.328 12.000,1.500 C12.000,0.672 12.672,0.000 13.500,0.000 C14.328,0.000 15.000,0.672 15.000,1.500 C15.000,2.328 14.328,3.000 13.500,3.000 ZM7.500,3.000 C6.672,3.000 6.000,2.328 6.000,1.500 C6.000,0.672 6.672,0.000 7.500,0.000 C8.328,0.000 9.000,0.672 9.000,1.500 C9.000,2.328 8.328,3.000 7.500,3.000 ZM1.500,3.000 C0.672,3.000 -0.000,2.328 -0.000,1.500 C-0.000,0.672 0.672,0.000 1.500,0.000 C2.328,0.000 3.000,0.672 3.000,1.500 C3.000,2.328 2.328,3.000 1.500,3.000 Z" class="cls-1"/>
</svg>
