<svg xmlns="http://www.w3.org/2000/svg" xmlns:xlink="http://www.w3.org/1999/xlink" preserveAspectRatio="xMidYMid" width="8" height="8" viewBox="0 0 8 8">
  <defs>
    <style>
      .cls-1 {
        fill: #fff;
        fill-rule: evenodd;
      }
    </style>
  </defs>
  <path d="M6.200,7.678 L3.984,5.461 L1.767,7.678 C1.359,8.086 0.697,8.086 0.289,7.678 C-0.119,7.270 -0.119,6.608 0.289,6.200 L2.506,3.984 L0.289,1.767 C-0.119,1.359 -0.119,0.697 0.289,0.289 C0.697,-0.119 1.359,-0.119 1.767,0.289 L3.984,2.506 L6.200,0.289 C6.608,-0.119 7.270,-0.119 7.678,0.289 C8.086,0.697 8.086,1.359 7.678,1.767 L5.461,3.984 L7.678,6.200 C8.086,6.608 8.086,7.270 7.678,7.678 C7.270,8.086 6.608,8.086 6.200,7.678 Z" class="cls-1"/>
</svg>
