<svg xmlns="http://www.w3.org/2000/svg" preserveAspectRatio="xMidYMid" width="16" height="16" viewBox="0 0 16 16"><defs><style>.cls-1 { fill: #3096ef; } .cls-2 { fill: #fff; fill-rule: evenodd; }</style></defs><circle cx="8" cy="8" r="8" class="cls-1"/><path d="M6.733 6.642c.004-.394.12-.714.346-.962.227-.247.549-.371.968-.371.36 0 .661.094.905.282.243.189.365.471.365.848 0 .152-.02.287-.061.403-.04.116-.112.232-.215.346l-.286.279-.409.318c-.386.275-.68.57-.883.885-.203.315-.294.689-.273 1.12l-.19.21h2l-.42-.121c0-.177.015-.326.045-.444.029-.119.094-.238.193-.359.1-.12.197-.22.292-.298l.48-.371.368-.286c.093-.076.202-.181.327-.314.125-.134.223-.264.295-.391.072-.127.133-.282.184-.466.051-.184.076-.38.076-.587 0-.491-.129-.911-.387-1.26s-.588-.604-.99-.765c-.402-.161-.849-.241-1.34-.241-.283 0-.555.027-.815.082-.26.055-.514.146-.762.273-.248.127-.46.286-.638.476-.178.191-.32.433-.425.727-.106.294-.155.623-.146.987h1.396zm1.258 6.369c.276 0 .511-.095.706-.285.194-.191.292-.429.292-.715s-.098-.524-.292-.715c-.195-.19-.43-.286-.706-.286-.28 0-.518.096-.713.286-.195.191-.292.429-.292.715s.097.524.292.715c.195.19.433.285.713.285z" class="cls-2"/></svg>