<svg xmlns="http://www.w3.org/2000/svg" width="16" height="16" viewBox="0 0 16 16"><defs><style>.cls-1 { fill: #868686; fill-rule: evenodd; }</style></defs><path id="icon-support.svg" class="cls-1" d="M596 1729a8 8 0 1 1 8-8 8 8 0 0 1-8 8zm3-8a3 3 0 1 0-3 3 3 3 0 0 0 3-3zm-4 6.9a5.05 5.05 0 0 0 2 0v-3.04a3.641 3.641 0 0 1-2 0v3.04zm-6-6.9a7.05 7.05 0 0 0 .083 1h3.053a3.744 3.744 0 0 1 0-2h-3.053a7.05 7.05 0 0 0-.083 1zm8-6.9a5.05 5.05 0 0 0-2 0v3.04a3.641 3.641 0 0 1 2 0v-3.04zm2.863 5.9a3.718 3.718 0 0 1 0 2h3.054a6.066 6.066 0 0 0 0-2h-3.054z" transform="translate(-588 -1713)"/></svg>