<svg xmlns="http://www.w3.org/2000/svg" width="15.969" height="13" viewBox="0 0 15.969 13"><defs><style>.cls-1 { fill: #868686; fill-rule: evenodd; }</style></defs><path id="icon-email.svg" class="cls-1" d="M651.969 1727.5a.5.5 0 0 1-.5.5h-14.969a.5.5 0 0 1-.5-.5v-12.01a.142.142 0 0 1 0-.02.474.474 0 0 1 .124-.3.069.069 0 0 1 .014-.03.073.073 0 0 1 .039-.02.509.509 0 0 1 .269-.11l.054-.01h14.956l.054.01a.505.505 0 0 1 .269.11.073.073 0 0 1 .04.02.071.071 0 0 1 .013.03.475.475 0 0 1 .125.3v12.03zm-7.985-6.63l6.072-4.87h-12.143z" transform="translate(-636 -1715)"/></svg>