<svg xmlns="http://www.w3.org/2000/svg" preserveAspectRatio="xMidYMid" width="14" height="14.031" viewBox="0 0 14 14.031"><defs><style>.cls-1 { fill: #868686; fill-rule: evenodd; }</style></defs><path d="M.143 13.175l8.129-8.159-3.826.024c-.261 0-.474-.223-.475-.5-.001-.276.21-.5.471-.502l5.023-.031.003-.001.003.001h.028c.111-.001.209.046.29.114l.039.028.024.033c.071.08.12.18.12.292l.001.028v.007l.031 4.987c.001.26-.223.471-.501.473-.278.001-.504-.209-.505-.468l-.024-3.802-8.134 8.164c-.191.191-.501.193-.694.002-.192-.189-.194-.499-.003-.69zm12.857-.673v-11.001c0-.276-.224-.5-.5-.5h-11c-.276 0-.5.224-.5.5v6.501h-1v-7.001c0-.552.448-1 1-1h12c.552 0 1 .448 1 1v12c0 .553-.448 1-1 1h-7v-1h6.5c.276 0 .5-.223.5-.499z" class="cls-1"/></svg>