<svg xmlns="http://www.w3.org/2000/svg" width="16" height="15" viewBox="0 0 16 15"><defs><style>.cls-1 { fill: #868686; fill-rule: evenodd; }</style></defs><path id="icon-live-chat.svg" class="cls-1" d="M577.5 1728h-4.494l-2.006 2-2.007-2h-4.493a1.5 1.5 0 0 1-1.5-1.5v-10a1.5 1.5 0 0 1 1.5-1.5h13a1.5 1.5 0 0 1 1.5 1.5v10a1.5 1.5 0 0 1-1.5 1.5zm-2-8h-9a.5.5 0 0 1-.5-.5.5.5 0 0 1 .5-.5h9a.5.5 0 0 1 .5.5.5.5 0 0 1-.5.5zm-7 2h5a.5.5 0 0 1 .5.5.5.5 0 0 1-.5.5h-5a.5.5 0 0 1-.5-.5.5.5 0 0 1 .5-.5z" transform="translate(-563 -1715)"/></svg>