<svg xmlns="http://www.w3.org/2000/svg" preserveAspectRatio="xMidYMid" width="13" height="16" viewBox="0 0 13 16"><defs><style>.cls-1 { fill: #3096ef; fill-rule: evenodd; }</style></defs><path d="M13 4v11.498c0 .277-.224.5-.5.5h-12c-.276 0-.5-.223-.5-.5v-14.999c0-.277.224-.501.5-.501h8.5v.002-.001l3.998 3.999h.002v.002zm-4-2.77v2.768h2.768l-2.768-2.768zm.5 10.768h-6c-.276 0-.5-.224-.5-.5s.224-.5.5-.5h6c.276 0 .5.224.5.5s-.224.5-.5.5zm0-3h-6c-.276 0-.5-.224-.5-.499 0-.277.224-.501.5-.501h6c.276 0 .5.224.5.501 0 .275-.224.499-.5.499z" class="cls-1"/></svg>