<svg xmlns="http://www.w3.org/2000/svg" preserveAspectRatio="xMidYMid" width="8" height="8" viewBox="0 0 8 8"><defs><style>.cls-1 { fill: #fff; fill-rule: evenodd; }</style></defs><path d="M6.2 7.678l-2.216-2.217-2.217 2.217c-.408.408-1.07.408-1.478 0-.408-.408-.408-1.07 0-1.478l2.217-2.216-2.217-2.217c-.408-.408-.408-1.07 0-1.478.408-.408 1.07-.408 1.478 0l2.217 2.217 2.216-2.217c.408-.408 1.07-.408 1.478 0 .408.408.408 1.07 0 1.478l-2.217 2.217 2.217 2.216c.408.408.408 1.07 0 1.478-.408.408-1.07.408-1.478 0z" class="cls-1"/></svg>